HIERARCHY
ROOT hip
{
  OFFSET 0.00112043 5.09927 -9.65472
  CHANNELS 6 Xposition Yposition Zposition Zrotation Xrotation Yrotation
  JOINT abdomen
  {
    OFFSET 0 -1.186 -1.5018
    CHANNELS 3 Zrotation Xrotation Yrotation
    JOINT abdomen2
    {
      OFFSET 0 9.964 0.2134
      CHANNELS 3 Zrotation Xrotation Yrotation
      JOINT chest
      {
        OFFSET 0 13.134 -3.2573
        CHANNELS 3 Zrotation Xrotation Yrotation
        JOINT neck
        {
          OFFSET 0 20.686 -1.6905
          CHANNELS 3 Zrotation Xrotation Yrotation
          JOINT head
          {
            OFFSET 0 7.238 -0.1237
            CHANNELS 3 Zrotation Xrotation Yrotation
            End Site
            {
              OFFSET 0 0 0
            }
          }
        }
        JOINT lCollar
        {
          OFFSET 1.7069 20.075 5.0056
          CHANNELS 3 Zrotation Xrotation Yrotation
          JOINT lShldr
          {
            OFFSET 13.6458 -0.047 -4.849
            CHANNELS 3 Zrotation Xrotation Yrotation
            JOINT lForeArm
            {
              OFFSET 28.3255 -0.9759 2.2888
              CHANNELS 3 Zrotation Xrotation Yrotation
              JOINT lHand
              {
                OFFSET 22.1583 -0.53 10.8316
                CHANNELS 3 Zrotation Xrotation Yrotation
                JOINT lThumb1
                {
                  OFFSET 0.786 0.112 2.5817
                  CHANNELS 3 Zrotation Xrotation Yrotation
                  JOINT lThumb2
                  {
                    OFFSET 0.3601 -0.878 4.2331
                    CHANNELS 3 Zrotation Xrotation Yrotation
                    JOINT lThumb2_End
                    {
                      OFFSET 1.8127 -1.216 2.2227
                      CHANNELS 3 Zrotation Xrotation Yrotation
                      End Site
                      {
                        OFFSET 0.0181 -0.0122 0.0222
                      }
                    }
                  }
                }
                JOINT lCarpal1
                {
                  OFFSET 0.9571 1.114 1.7695
                  CHANNELS 3 Zrotation Xrotation Yrotation
                  JOINT lIndex1
                  {
                    OFFSET 4.1246 0.487 4.1451
                    CHANNELS 3 Zrotation Xrotation Yrotation
                    JOINT lIndex2
                    {
                      OFFSET 3.4052 -1.454 2.7682
                      CHANNELS 3 Zrotation Xrotation Yrotation
                      JOINT lIndex2_End
                      {
                        OFFSET 1.4531 -1.795 1.2713
                        CHANNELS 3 Zrotation Xrotation Yrotation
                        End Site
                        {
                          OFFSET 0.0145 -0.0179 0.0127
                        }
                      }
                    }
                  }
                  JOINT lMid1
                  {
                    OFFSET 5.6954 0.21 2.1184
                    CHANNELS 3 Zrotation Xrotation Yrotation
                    JOINT lMid2
                    {
                      OFFSET 3.9766 -1.54 2.3863
                      CHANNELS 3 Zrotation Xrotation Yrotation
                      JOINT lMid2_End
                      {
                        OFFSET 1.4042 -1.926 1.125
                        CHANNELS 3 Zrotation Xrotation Yrotation
                        End Site
                        {
                          OFFSET 0.014 -0.0193 0.0113
                        }
                      }
                    }
                  }
                }
                JOINT lCarpal2
                {
                  OFFSET 2.0956 0.66 -0.3894
                  CHANNELS 3 Zrotation Xrotation Yrotation
                  JOINT lRing1
                  {
                    OFFSET 5.0395 -0.09 2.4971
                    CHANNELS 3 Zrotation Xrotation Yrotation
                    JOINT lRing2
                    {
                      OFFSET 3.7921 -1.552 1.4806
                      CHANNELS 3 Zrotation Xrotation Yrotation
                      JOINT lRing2_End
                      {
                        OFFSET 1.4655 -1.808 0.9609
                        CHANNELS 3 Zrotation Xrotation Yrotation
                        End Site
                        {
                          OFFSET 0.0147 -0.0181 0.0096
                        }
                      }
                    }
                  }
                  JOINT lPinky1
                  {
                    OFFSET 4.9141 -1.269 0.3591
                    CHANNELS 3 Zrotation Xrotation Yrotation
                    JOINT lPinky2
                    {
                      OFFSET 3.1477 -1.685 0.8462
                      CHANNELS 3 Zrotation Xrotation Yrotation
                      JOINT lPinky2_End
                      {
                        OFFSET 0.8055 -1.585 0.7955
                        CHANNELS 3 Zrotation Xrotation Yrotation
                        End Site
                        {
                          OFFSET 0.0081 -0.0158 0.008
                        }
                      }
                    }
                  }
                }
              }
            }
          }
        }
        JOINT rCollar
        {
          OFFSET -1.7069 20.075 5.0056
          CHANNELS 3 Zrotation Xrotation Yrotation
          JOINT rShldr
          {
            OFFSET -13.6458 -0.047 -4.849
            CHANNELS 3 Zrotation Xrotation Yrotation
            JOINT rForeArm
            {
              OFFSET -28.3255 -0.9759 2.2888
              CHANNELS 3 Zrotation Xrotation Yrotation
              JOINT rHand
              {
                OFFSET -22.1583 -0.53 10.8316
                CHANNELS 3 Zrotation Xrotation Yrotation
                JOINT rThumb1
                {
                  OFFSET -0.786 0.112 2.5817
                  CHANNELS 3 Zrotation Xrotation Yrotation
                  JOINT rThumb2
                  {
                    OFFSET -0.3601 -0.878 4.2331
                    CHANNELS 3 Zrotation Xrotation Yrotation
                    JOINT rThumb2_End
                    {
                      OFFSET -1.8127 -1.216 2.2227
                      CHANNELS 3 Zrotation Xrotation Yrotation
                      End Site
                      {
                        OFFSET -0.0181 -0.0122 0.0222
                      }
                    }
                  }
                }
                JOINT rCarpal1
                {
                  OFFSET -0.9571 1.114 1.7695
                  CHANNELS 3 Zrotation Xrotation Yrotation
                  JOINT rIndex1
                  {
                    OFFSET -4.1246 0.487 4.1451
                    CHANNELS 3 Zrotation Xrotation Yrotation
                    JOINT rIndex2
                    {
                      OFFSET -3.4052 -1.454 2.7682
                      CHANNELS 3 Zrotation Xrotation Yrotation
                      JOINT rIndex2_End
                      {
                        OFFSET -1.4531 -1.795 1.2713
                        CHANNELS 3 Zrotation Xrotation Yrotation
                        End Site
                        {
                          OFFSET -0.0145 -0.018 0.0127
                        }
                      }
                    }
                  }
                  JOINT rMid1
                  {
                    OFFSET -5.6954 0.21 2.1184
                    CHANNELS 3 Zrotation Xrotation Yrotation
                    JOINT rMid2
                    {
                      OFFSET -3.9766 -1.54 2.3863
                      CHANNELS 3 Zrotation Xrotation Yrotation
                      JOINT rMid2_End
                      {
                        OFFSET -1.4042 -1.926 1.125
                        CHANNELS 3 Zrotation Xrotation Yrotation
                        End Site
                        {
                          OFFSET -0.014 -0.0193 0.0113
                        }
                      }
                    }
                  }
                }
                JOINT rCarpal2
                {
                  OFFSET -2.0956 0.66 -0.3894
                  CHANNELS 3 Zrotation Xrotation Yrotation
                  JOINT rRing1
                  {
                    OFFSET -5.0395 -0.09 2.4971
                    CHANNELS 3 Zrotation Xrotation Yrotation
                    JOINT rRing2
                    {
                      OFFSET -3.7921 -1.552 1.4806
                      CHANNELS 3 Zrotation Xrotation Yrotation
                      JOINT rRing2_End
                      {
                        OFFSET -1.4655 -1.808 0.9609
                        CHANNELS 3 Zrotation Xrotation Yrotation
                        End Site
                        {
                          OFFSET -0.0147 -0.0181 0.0096
                        }
                      }
                    }
                  }
                  JOINT rPinky1
                  {
                    OFFSET -4.9141 -1.269 0.3592
                    CHANNELS 3 Zrotation Xrotation Yrotation
                    JOINT rPinky2
                    {
                      OFFSET -3.1477 -1.685 0.8462
                      CHANNELS 3 Zrotation Xrotation Yrotation
                      JOINT rPinky2_End
                      {
                        OFFSET -0.8055 -1.585 0.7955
                        CHANNELS 3 Zrotation Xrotation Yrotation
                        End Site
                        {
                          OFFSET -0.0081 -0.0158 0.008
                        }
                      }
                    }
                  }
                }
              }
            }
          }
        }
      }
    }
  }
  JOINT lThigh
  {
    OFFSET 8.367 -8.2066 0.5982
    CHANNELS 3 Zrotation Xrotation Yrotation
    JOINT lShin
    {
      OFFSET 2.1923 -43.463 -0.4932
      CHANNELS 3 Zrotation Xrotation Yrotation
      JOINT lFoot
      {
        OFFSET 0.7333 -45.8593 -2.6451
        CHANNELS 3 Zrotation Xrotation Yrotation
        End Site
        {
          OFFSET 2.6618 -4.2699 12.3931
        }
      }
    }
  }
  JOINT rThigh
  {
    OFFSET -8.367 -8.2066 0.5982
    CHANNELS 3 Zrotation Xrotation Yrotation
    JOINT rShin
    {
      OFFSET -2.1923 -43.463 -0.4931
      CHANNELS 3 Zrotation Xrotation Yrotation
      JOINT rFoot
      {
        OFFSET -0.7333 -45.8593 -2.6451
        CHANNELS 3 Zrotation Xrotation Yrotation
        End Site
        {
          OFFSET -2.6618 -4.2699 12.3931
        }
      }
    }
  }
}
MOTION
Frames:	5
Frame Time:	0.0333333
-7.37488 19.9278 60.0021 -180 84.0016 -180 -0.125581 -2.16171 -0.416651 -0.267189 -4.32246 -0.838943 -0.267189 -4.32245 -0.838944 4.53642e-006 -35.9526 -4.18894e-006 6.41399e-007 -15.0017 1.68187e-007 -1.03112 -13.6507 -26.3156 8.52212 -1.62792 -14.3054 31.993 -22.552 -18.665 9.82211 -15.2508 2.40266 -6.05418e-007 -8.11127e-007 6.98897e-006 -1.88172e-007 -1.18323e-006 -1.49722e-007 -6.857e-007 -4.97528e-007 -7.38584e-008 3.18055e-015 0 -3.18055e-015 -6.05418e-007 -8.11127e-007 6.98897e-006 -1.88172e-007 -1.18323e-006 -1.49722e-007 -6.857e-007 -4.97528e-007 -7.38584e-008 -6.05418e-007 -8.11127e-007 6.98897e-006 -1.88172e-007 -1.18323e-006 -1.49722e-007 -6.857e-007 -4.97528e-007 -7.38584e-008 3.18055e-015 0 -3.18055e-015 -6.05418e-007 -8.11127e-007 6.98897e-006 -1.88172e-007 -1.18323e-006 -1.49722e-007 -6.857e-007 -4.97528e-007 -7.38584e-008 -6.05418e-007 -8.11127e-007 6.98897e-006 -1.88172e-007 -1.18323e-006 -1.49722e-007 -6.857e-007 -4.97528e-007 -7.38584e-008 1.38571 -14.0617 26.3277 -8.83216 -1.72273 15.8028 -29.7578 -19.4167 20.1425 -9.99666 -14.7837 -4.54541 -3.98555e-007 9.3075e-007 1.4062e-006 -3.18055e-015 6.36111e-015 -0 -6.36111e-015 7.95139e-015 -0 -4.41391e-032 -7.95139e-016 -3.18055e-015 -3.98555e-007 9.3075e-007 1.4062e-006 -2.64834e-031 4.77083e-015 3.18055e-015 0 5.56597e-015 -0 -3.98555e-007 9.3075e-007 1.4062e-006 -2.64834e-031 4.77083e-015 3.18055e-015 0 5.56597e-015 -0 -4.41391e-032 -7.95139e-016 -3.18055e-015 -3.98555e-007 9.3075e-007 1.4062e-006 -2.64834e-031 4.77083e-015 3.18055e-015 0 5.56597e-015 -0 -3.98555e-007 9.3075e-007 1.4062e-006 -2.64834e-031 4.77083e-015 3.18055e-015 0 5.56597e-015 -0 100.422 -39.6114 111.811 35.3505 75.917 -41.8381 47.2334 35.4252 -70.597 -100.377 -39.3179 -112.038 -35.4849 75.894 41.9731 -47.6244 35.2174 70.8622 
-7.37506 20.037 59.9527 -180 83.2498 -180 -0.123498 -2.46811 -0.418287 -0.265416 -4.93522 -0.843079 -0.265417 -4.93522 -0.843079 -5.76083e-006 -35.5396 -7.73705e-006 -3.41039e-007 -15.0017 -1.77292e-007 -1.43844 -13.1771 -26.2446 8.52212 -1.62789 -14.3054 32.1571 -22.6901 -18.8945 9.50518 -14.8699 2.32665 4.77083e-015 6.36111e-015 -3.18055e-015 3.18055e-015 7.15625e-015 3.18055e-015 1.59028e-015 7.95139e-015 -3.18055e-015 1.59028e-015 0 -3.18055e-015 3.18055e-015 5.56597e-015 -0 0 5.56597e-015 -0 3.18055e-015 7.95139e-015 3.18055e-015 3.18055e-015 5.56597e-015 -0 0 5.56597e-015 -0 3.18055e-015 7.95139e-015 3.18055e-015 1.59028e-015 0 -3.18055e-015 3.18055e-015 5.56597e-015 -0 0 5.56597e-015 -0 3.18055e-015 7.95139e-015 3.18055e-015 3.18055e-015 5.56597e-015 -0 0 5.56597e-015 -0 3.18055e-015 7.95139e-015 3.18055e-015 1.81106 -13.5564 26.2113 -8.84125 -1.7251 15.8363 -29.8992 -19.5578 20.3901 -9.69976 -14.4121 -4.44219 -3.18055e-015 -1.82882e-014 -0 3.18055e-015 -1.59028e-014 3.18055e-015 -6.36111e-015 -1.82882e-014 3.18055e-015 -3.18055e-015 0 -3.18055e-015 6.36111e-015 -1.82882e-014 -0 9.71059e-031 -1.74931e-014 3.18055e-015 1.0152e-030 -1.82882e-014 3.18055e-015 6.36111e-015 -1.82882e-014 -0 9.71059e-031 -1.74931e-014 3.18055e-015 1.0152e-030 -1.82882e-014 3.18055e-015 -3.18055e-015 0 -3.18055e-015 6.36111e-015 -1.82882e-014 -0 9.71059e-031 -1.74931e-014 3.18055e-015 1.0152e-030 -1.82882e-014 3.18055e-015 6.36111e-015 -1.82882e-014 -0 9.71059e-031 -1.74931e-014 3.18055e-015 1.0152e-030 -1.82882e-014 3.18055e-015 101.26 -40.2323 112.324 35.3079 75.8997 -41.7687 46.3924 36.1136 -69.9741 -101.214 -39.9619 -112.531 -35.4425 75.8768 41.903 -46.7564 35.9237 70.2211 
-7.37526 20.1462 59.9029 -180 82.4982 -180 -0.121408 -2.77395 -0.419849 -0.263655 -5.54691 -0.847082 -0.263655 -5.54691 -0.847081 -4.03252e-006 -35.1267 -1.7798e-006 3.42952e-007 -15.0017 1.62108e-007 -1.84553 -12.704 -26.1702 8.52212 -1.62792 -14.3054 32.3208 -22.8289 -19.1238 9.18937 -14.4885 2.25298 -1.59028e-015 3.18055e-015 -0 -3.18055e-015 3.97569e-015 6.36111e-015 -1.59028e-015 3.97569e-015 -0 -4.41391e-032 -7.95139e-016 -3.18055e-015 -2.11868e-030 1.27222e-014 9.54166e-015 1.59028e-015 3.97569e-015 -0 -1.59028e-015 3.97569e-015 -0 -2.11868e-030 1.27222e-014 9.54166e-015 1.59028e-015 3.97569e-015 -0 -1.59028e-015 3.97569e-015 -0 -4.41391e-032 -7.95139e-016 -3.18055e-015 -2.11868e-030 1.27222e-014 9.54166e-015 1.59028e-015 3.97569e-015 -0 -1.59028e-015 3.97569e-015 -0 -2.11868e-030 1.27222e-014 9.54166e-015 1.59028e-015 3.97569e-015 -0 -1.59028e-015 3.97569e-015 -0 2.23651 -13.052 26.0913 -8.85033 -1.72747 15.8698 -30.0399 -19.6995 20.6377 -9.40407 -14.04 -4.34109 -3.18055e-015 7.95139e-016 -0 3.53113e-031 -3.18055e-015 6.36111e-015 -8.82781e-032 1.59028e-015 3.18055e-015 -3.18055e-015 7.95139e-016 -0 3.18055e-015 -1.51076e-014 6.36111e-015 4.41391e-032 -7.95139e-016 3.18055e-015 -3.18055e-015 -7.95139e-016 -0 3.18055e-015 -1.51076e-014 6.36111e-015 4.41391e-032 -7.95139e-016 3.18055e-015 -3.18055e-015 -7.95139e-016 -0 -3.18055e-015 7.95139e-016 -0 3.18055e-015 -1.51076e-014 6.36111e-015 4.41391e-032 -7.95139e-016 3.18055e-015 -3.18055e-015 -7.95139e-016 -0 3.18055e-015 -1.51076e-014 6.36111e-015 4.41391e-032 -7.95139e-016 3.18055e-015 -3.18055e-015 -7.95139e-016 -0 102.112 -40.8452 112.853 35.2619 75.8814 -41.6973 45.5343 36.7954 -69.3343 -102.066 -40.5981 -113.039 -35.3968 75.8586 41.831 -45.8706 36.623 69.5621 
-7.37549 20.2553 59.8528 -180 81.7467 -180 -0.119312 -3.07898 -0.421334 -0.261902 -6.15703 -0.850946 -0.261902 -6.15702 -0.850946 -1.19263e-005 -34.7141 -5.85867e-006 3.74355e-007 -15.0017 5.07557e-007 -2.25242 -12.2316 -26.0926 8.52212 -1.62791 -14.3054 32.484 -22.9683 -19.353 8.87464 -14.1068 2.18161 4.77083e-015 7.15625e-015 3.18055e-015 3.18055e-015 7.15625e-015 -0 4.77083e-015 7.95139e-015 -0 3.18055e-015 0 -0 -1.59028e-015 1.11319e-014 -0 -1.59028e-015 7.15625e-015 -0 -3.97252e-031 7.15625e-015 3.18055e-015 -1.59028e-015 1.11319e-014 -0 -1.59028e-015 7.15625e-015 -0 -3.97252e-031 7.15625e-015 3.18055e-015 3.18055e-015 0 -0 -1.59028e-015 1.11319e-014 -0 -1.59028e-015 7.15625e-015 -0 -3.97252e-031 7.15625e-015 3.18055e-015 -1.59028e-015 1.11319e-014 -0 -1.59028e-015 7.15625e-015 -0 -3.97252e-031 7.15625e-015 3.18055e-015 2.66209 -12.5487 25.9677 -8.85943 -1.7298 15.9033 -30.1801 -19.8418 20.885 -9.10954 -13.6673 -4.24213 -3.18055e-015 -7.15625e-015 -6.36111e-015 -6.17947e-031 -5.56597e-015 -6.36111e-015 -1.76556e-031 -1.59028e-015 -6.36111e-015 -2.20695e-031 -3.97569e-015 -3.18055e-015 -3.18055e-015 -7.95139e-015 -3.18055e-015 -6.36111e-015 -3.18055e-015 -3.18055e-015 -3.18055e-015 -2.38542e-015 -6.36111e-015 -3.18055e-015 -7.95139e-015 -3.18055e-015 -6.36111e-015 -3.18055e-015 -3.18055e-015 -3.18055e-015 -2.38542e-015 -6.36111e-015 -2.20695e-031 -3.97569e-015 -3.18055e-015 -3.18055e-015 -7.95139e-015 -3.18055e-015 -6.36111e-015 -3.18055e-015 -3.18055e-015 -3.18055e-015 -2.38542e-015 -6.36111e-015 -3.18055e-015 -7.95139e-015 -3.18055e-015 -6.36111e-015 -3.18055e-015 -3.18055e-015 -3.18055e-015 -2.38542e-015 -6.36111e-015 102.979 -41.4501 113.396 35.2127 75.862 -41.6238 44.6589 37.4701 -68.6771 -102.933 -41.2264 -113.562 -35.348 75.8394 41.7572 -44.9665 37.3147 68.8847 
-7.37575 20.3643 59.8024 -180 80.9956 -180 -0.117213 -3.38307 -0.422742 -0.260158 -6.7651 -0.85467 -0.260159 -6.76508 -0.85467 -8.12005e-006 -34.3015 -7.74352e-006 8.04733e-007 -15.0017 1.67297e-007 -2.65915 -11.7599 -26.0118 8.52212 -1.6279 -14.3054 32.6468 -23.1082 -19.5818 8.56097 -13.7249 2.11258 1.18879e-006 -3.6484e-007 1.53706e-006 -1.59028e-015 7.95139e-016 -0 -3.18055e-015 0 -6.36111e-015 1.59028e-015 0 -3.18055e-015 1.18879e-006 -3.6484e-007 1.53706e-006 0 0 -0 0 1.59028e-015 -0 1.18879e-006 -3.6484e-007 1.53706e-006 0 0 -0 0 1.59028e-015 -0 1.59028e-015 0 -3.18055e-015 1.18879e-006 -3.6484e-007 1.53706e-006 0 0 -0 0 1.59028e-015 -0 1.18879e-006 -3.6484e-007 1.53706e-006 0 0 -0 0 1.59028e-015 -0 3.08781 -12.0465 25.8406 -8.86851 -1.7322 15.9367 -30.3198 -19.9845 21.1322 -8.8162 -13.2943 -4.14535 -4.41391e-032 -7.95139e-016 -3.18055e-015 -3.18055e-015 -7.95139e-016 -6.36111e-015 -3.18055e-015 0 -3.18055e-015 3.18055e-015 7.95139e-016 -3.18055e-015 3.18055e-015 -1.03368e-014 -6.36111e-015 -3.18055e-015 -1.59028e-015 3.18055e-015 -3.18055e-015 -1.59028e-015 3.18055e-015 3.18055e-015 -1.03368e-014 -6.36111e-015 -3.18055e-015 -1.59028e-015 3.18055e-015 -3.18055e-015 -1.59028e-015 3.18055e-015 3.18055e-015 7.95139e-016 -3.18055e-015 3.18055e-015 -1.03368e-014 -6.36111e-015 -3.18055e-015 -1.59028e-015 3.18055e-015 -3.18055e-015 -1.59028e-015 3.18055e-015 3.18055e-015 -1.03368e-014 -6.36111e-015 -3.18055e-015 -1.59028e-015 3.18055e-015 -3.18055e-015 -1.59028e-015 3.18055e-015 103.86 -42.0464 113.955 35.1603 75.8417 -41.5486 43.7658 38.1374 -68.002 -103.815 -41.8463 -114.102 -35.2964 75.8192 41.6817 -44.0439 37.9984 68.1885 
